<svg xmlns="http://www.w3.org/2000/svg" viewBox="0 0 64 64" fill="none">
  <path
    fill="#39C5BB"
    d="M11 22.5C11 21.119 12.119 20 13.5 20C14.881 20 16 21.119 16 22.5V41.5C16 42.881 14.881 44 13.5 44C12.119 44 11 42.881 11 41.5V22.5ZM20 22.5C20 21.119 21.119 20 22.5 20C23.881 20 25 21.119 25 22.5V41.5C25 42.881 23.881 44 22.5 44C21.119 44 20 42.881 20 41.5V22.5Z"
  />
  <path
    d="M 48.1 43.46 L 48.29 44.22 L 48.44 45 L 48.54 45.8 L 48.59 46.61 L 48.58 47.44 L 48.5 48.28 L 48.36 49.12 L 48.15 49.95 L 47.86 50.78 L 47.49 51.58 L 47.05 52.36 L 46.52 53.1 L 45.91 53.78 L 45.23 54.41 L 44.48 54.96 L 43.66 55.43 L 42.8 55.8 L 41.89 56.08 L 40.95 56.24 L 40 56.3 L 39.05 56.24 L 38.11 56.08 L 37.2 55.8 L 36.34 55.43 L 35.52 54.96 L 34.77 54.41 L 34.09 53.78 L 33.48 53.1 L 32.95 52.36 L 32.51 51.58 L 32.14 50.78 L 31.85 49.95 L 31.64 49.12 L 31.5 48.28 L 31.42 47.44 L 31.41 46.61 L 31.46 45.8 L 31.56 45 L 31.71 44.22 L 31.9 43.46 L 32.13 42.72 L 32.4 42 L 32.69 41.31 L 33.02 40.63 L 33.36 39.98 L 33.73 39.35 L 34.12 38.74 L 34.52 38.15 L 34.94 37.58 L 35.36 37.02 L 35.8 36.47 L 36.25 35.94 L 36.7 35.42 L 37.16 34.92 L 37.63 34.42 L 38.1 33.92 L 38.57 33.44 L 39.05 32.96 L 39.52 32.48 L 40 32 L 40.48 31.52 L 40.95 31.04 L 41.43 30.56 L 41.9 30.08 L 42.37 29.58 L 42.84 29.08 L 43.3 28.58 L 43.75 28.06 L 44.2 27.53 L 44.64 26.98 L 45.06 26.42 L 45.48 25.85 L 45.88 25.26 L 46.27 24.65 L 46.64 24.02 L 46.98 23.37 L 47.31 22.69 L 47.6 22 L 47.87 21.28 L 48.1 20.54 L 48.29 19.78 L 48.44 19 L 48.54 18.2 L 48.59 17.39 L 48.58 16.56 L 48.5 15.72 L 48.36 14.88 L 48.15 14.05 L 47.86 13.22 L 47.49 12.42 L 47.05 11.64 L 46.52 10.9 L 45.91 10.22 L 45.23 9.59 L 44.48 9.04 L 43.66 8.57 L 42.8 8.2 L 41.89 7.92 L 40.95 7.76 L 40 7.7 L 39.05 7.76 L 38.11 7.92 L 37.2 8.2 L 36.34 8.57 L 35.52 9.04 L 34.77 9.59 L 34.09 10.22 L 33.48 10.9 L 32.95 11.64 L 32.51 12.42 L 32.14 13.22 L 31.85 14.05 L 31.64 14.88 L 31.5 15.72 L 31.42 16.56 L 31.41 17.39 L 31.46 18.2 L 31.56 19 L 31.71 19.78 L 31.9 20.54 L 32.13 21.28 L 32.4 22 L 32.69 22.69 L 33.02 23.37 L 33.36 24.02 L 33.73 24.65 L 34.12 25.26 L 34.52 25.85 L 34.94 26.42 L 35.36 26.98 L 35.8 27.53 L 36.25 28.06 L 36.7 28.58 L 37.16 29.08 L 37.63 29.58 L 38.1 30.08 L 38.57 30.56 L 39.05 31.04 L 39.52 31.52 L 40 32 L 40.48 32.48 L 40.95 32.96 L 41.43 33.44 L 41.9 33.92 L 42.37 34.42 L 42.84 34.92 L 43.3 35.42 L 43.75 35.94 L 44.2 36.47 L 44.64 37.02 L 45.06 37.58 L 45.48 38.15 L 45.88 38.74 L 46.27 39.35 L 46.64 39.98 L 46.98 40.63 L 47.31 41.31 L 47.6 42 L 47.87 42.72 L 48.1 43.46"
    stroke="#4166F5"
    stroke-width="7.5"
    stroke-linecap="round"
    stroke-linejoin="round"
  />
</svg>
